FILE "Woher kommt Früchte die mit K anfangen.mp3" MP3
  TRACK 01 AUDIO
    TITLE "Kapitel 1"
    INDEX 01 00:00:00
  TRACK 02 AUDIO
    TITLE "Kapitel 2"
    INDEX 01 04:39:00
  TRACK 03 AUDIO
    TITLE "Kapitel 3"
    INDEX 01 07:50:00
  TRACK 04 AUDIO
    TITLE "Kapitel 4"
    INDEX 01 10:32:00
  TRACK 05 AUDIO
    TITLE "Kapitel 5"
    INDEX 01 14:10:00
  TRACK 06 AUDIO
    TITLE "Kapitel 6"
    INDEX 01 18:02:00
